<?xml version="1.0" standalone="no"?><!DOCTYPE svg PUBLIC "-//W3C//DTD SVG 1.1//EN" "http://www.w3.org/Graphics/SVG/1.1/DTD/svg11.dtd"><svg t="1603938067941" class="icon" viewBox="0 0 1024 1024" version="1.1" xmlns="http://www.w3.org/2000/svg" p-id="2433" xmlns:xlink="http://www.w3.org/1999/xlink" width="200" height="200"><defs><style type="text/css"></style></defs><path d="M512 1008.504074c-66.995857 0-132.007523-13.134135-193.22784-39.038108-59.119469-25.01472-112.217804-60.821227-157.817352-106.420775-45.600571-45.600571-81.405031-98.697883-106.420775-157.818375-25.903973-61.220317-39.038108-126.230959-39.038108-193.22784s13.134135-132.007523 39.038108-193.22784c25.015743-59.119469 60.820204-112.217804 106.420775-157.817352 45.600571-45.600571 98.697883-81.405031 157.817352-106.420775C379.992477 28.630061 445.004143 15.495926 512 15.495926c66.99688 0 132.007523 13.134135 193.22784 39.038108 59.119469 25.01472 112.216781 60.820204 157.817352 106.420775s81.406055 98.697883 106.420775 157.817352c25.903973 61.220317 39.038108 126.230959 39.038108 193.22784s-13.134135 132.0065-39.038108 193.22784c-25.01472 59.119469-60.821227 112.217804-106.420775 157.818375s-98.69686 81.406055-157.817352 106.420775C644.007523 995.369939 578.99688 1008.504074 512 1008.504074zM512 46.195112c-256.845763 0-465.804888 208.959126-465.804888 465.804888 0 256.846786 208.959126 465.805912 465.804888 465.805912s465.804888-208.959126 465.804888-465.805912C977.804888 255.154237 768.845763 46.195112 512 46.195112z" p-id="2434"></path></svg>