<?xml version="1.0" standalone="no"?><!DOCTYPE svg PUBLIC "-//W3C//DTD SVG 1.1//EN" "http://www.w3.org/Graphics/SVG/1.1/DTD/svg11.dtd"><svg t="1603953890409" class="icon" viewBox="0 0 1024 1024" version="1.1" xmlns="http://www.w3.org/2000/svg" p-id="946" xmlns:xlink="http://www.w3.org/1999/xlink" width="200" height="200"><defs><style type="text/css"></style></defs><path d="M843.1864 216.860073c-8.723685-41.122583-43.780109-78.319763-100.925621-106.317421-61.84658-30.297027-143.617955-46.985104-230.265384-46.985104-86.641289 0-168.412664 16.687054-230.259244 46.985104-57.155744 27.998681-92.201935 65.195861-100.925621 106.317421h-2.166339v590.273714h2.166339c8.723685 41.12463 43.769876 78.326926 100.925621 106.323561 61.84658 30.29498 143.617955 46.986127 230.259244 46.986127 86.647429 0 168.417781-16.691147 230.265384-46.986127 57.155744-27.996634 92.201935-65.199954 100.925621-106.323561h2.166339v-590.273714h-2.166339zM724.283336 876.765681c-56.356542 27.608801-131.74965 42.821271-212.286918 42.821271-80.533175 0-155.925259-15.211447-212.282824-42.821271-50.975998-24.974811-80.213903-57.795311-80.213903-90.057085 0-32.259728 29.236881-65.080228 80.213903-90.055039 56.357566-27.608801 131.74965-42.823318 212.282824-42.823318 80.537268 0 155.930375 15.213493 212.286918 42.823318 50.977022 24.974811 80.213903 57.795311 80.213903 90.055039 0 32.262798-29.236881 65.082274-80.213903 90.057085z m80.213903-174.960801c-16.229636-15.431457-37.09178-29.526477-62.235437-41.844013-61.84658-30.29498-143.617955-46.984081-230.265384-46.984081-86.641289 0-168.412664 16.689101-230.259244 46.984081-25.143657 12.317537-46.0058 26.412556-62.236459 41.844013V322.193073c16.23066 15.427364 37.092803 29.53057 62.236459 41.848107 61.84658 30.29498 143.617955 46.985104 230.259244 46.985104 86.637196 0 168.417781-16.689101 230.265384-46.985104 25.143657-12.317537 46.0058-26.420743 62.235437-41.848107v379.611807z m-80.213903-374.45946c-56.356542 27.611871-131.74965 42.819225-212.286918 42.819224-80.533175 0-155.925259-15.207353-212.282824-42.819224-50.975998-24.971741-80.213903-57.796334-80.213903-90.055039 0-32.258705 29.236881-65.084321 80.213903-90.056062 56.357566-27.611871 131.74965-42.819225 212.282824-42.819224 80.537268 0 155.930375 15.207353 212.286918 42.819224 50.977022 24.971741 80.213903 57.796334 80.213903 90.056062 0 32.257681-29.236881 65.081251-80.213903 90.055039z" fill="#515151" p-id="947"></path></svg>